<?xml version="1.0" encoding="utf-8"?><svg xmlns="http://www.w3.org/2000/svg" xmlns:xlink="http://www.w3.org/1999/xlink"><symbol viewBox="0 0 20 12" id="behance" xmlns="http://www.w3.org/2000/svg"><path fill-rule="evenodd" clip-rule="evenodd" d="M8.225 5.399s1.74-.124 1.74-2.112c0-1.981-1.423-2.954-3.23-2.954H.792v11.098h5.943s3.63.108 3.63-3.278c0 0 .156-2.754-2.14-2.754zm2.59 2.02c0-.022.006-4.261 4.387-4.261 4.626 0 3.975 4.817 3.975 4.817h-5.915c0 2.058 2.007 1.928 2.007 1.928 1.9 0 1.834-1.194 1.834-1.194h2.007c0 3.17-3.908 2.955-3.908 2.955-4.687 0-4.387-4.245-4.387-4.245zm4.431-2.636c-1.762 0-2.007 1.707-2.007 1.707h3.747s.028-1.707-1.74-1.707zm-8.51-2.479H3.41v2.479h3.12c.538 0 1.011-.168 1.011-1.323 0-1.156-.806-1.156-.806-1.156zM6.568 9.46H3.41V6.49h3.325s1.206-.011 1.2 1.528c0 1.296-.894 1.431-1.367 1.442zm6.177-7.107V.987h4.714v1.366h-4.714z"/></symbol><symbol viewBox="0 0 10 16" id="facebook" xmlns="http://www.w3.org/2000/svg"><path d="M8.783.211L6.784.208c-2.246 0-3.697 1.492-3.697 3.8v1.753h-2.01a.315.315 0 0 0-.315.315v2.539c0 .174.141.315.315.315h2.01v6.406c0 .174.14.315.314.315h2.623a.315.315 0 0 0 .314-.315V8.93h2.35a.314.314 0 0 0 .314-.315l.001-2.54a.316.316 0 0 0-.314-.314H6.338V4.275c0-.713.17-1.076 1.098-1.076h1.347a.315.315 0 0 0 .314-.315V.526a.315.315 0 0 0-.314-.315z"/></symbol><symbol viewBox="0 0 21 14" id="google" xmlns="http://www.w3.org/2000/svg"><path d="M.223 6.962C.103 3.76 2.854.802 5.997.763c1.603-.139 3.161.495 4.373 1.53a27.94 27.94 0 0 1-1.543 1.624c-1.068-.66-2.353-1.165-3.6-.717-2.012.584-3.23 3.006-2.486 5.013.617 2.096 3.117 3.246 5.077 2.365 1.014-.37 1.683-1.325 1.977-2.35-1.163-.024-2.326-.01-3.49-.042-.002-.705-.005-1.408-.002-2.113 1.94-.003 3.881-.01 5.824.008.119 1.729-.131 3.578-1.233 4.966-1.51 1.98-4.298 2.561-6.566 1.784C1.921 12.025.171 9.553.223 6.961zm15.684-2.668h1.73l.011 1.772c.579.006 1.16.01 1.739.012v1.767l-1.739.009c-.006.593-.008 1.182-.012 1.775-.578-.003-1.157 0-1.733 0-.005-.593-.005-1.182-.011-1.772-.579-.006-1.16-.01-1.739-.012V6.078c.579-.003 1.158-.006 1.739-.012.003-.59.009-1.182.015-1.772z"/></symbol><symbol viewBox="0 0 18 18" id="instagram" xmlns="http://www.w3.org/2000/svg"><path fill-rule="evenodd" clip-rule="evenodd" d="M5.813.5h6.375A5.313 5.313 0 0 1 17.5 5.813v6.375a5.313 5.313 0 0 1-5.313 5.312H5.814A5.313 5.313 0 0 1 .5 12.187V5.814A5.313 5.313 0 0 1 5.813.5zm6.375 15.406a3.723 3.723 0 0 0 3.718-3.719V5.814a3.723 3.723 0 0 0-3.719-3.72H5.814a3.723 3.723 0 0 0-3.72 3.72v6.375a3.723 3.723 0 0 0 3.72 3.718h6.375z"/><path fill-rule="evenodd" clip-rule="evenodd" d="M4.75 9a4.25 4.25 0 1 1 8.5 0 4.25 4.25 0 0 1-8.5 0zm1.594 0A2.66 2.66 0 0 0 9 11.656 2.66 2.66 0 0 0 11.656 9 2.66 2.66 0 0 0 9 6.344 2.66 2.66 0 0 0 6.344 9z"/><path d="M13.604 5.458a1.063 1.063 0 1 0 0-2.125 1.063 1.063 0 0 0 0 2.125z"/></symbol><symbol viewBox="0 0 512 512" id="next" xmlns="http://www.w3.org/2000/svg"><path d="M160 128.4L192.3 96 352 256 192.3 416 160 383.6 287.3 256z"/></symbol><symbol viewBox="0 0 13 16" id="pinterest" xmlns="http://www.w3.org/2000/svg"><path d="M10.809 1.8C9.756.774 8.298.208 6.705.208c-2.434 0-3.931 1.013-4.759 1.863C.926 3.118.342 4.509.342 5.886c0 1.73.713 3.057 1.906 3.55.08.034.16.05.24.05.251 0 .45-.166.52-.435.04-.154.133-.533.174-.698.087-.325.016-.482-.173-.709-.345-.414-.506-.904-.506-1.542 0-1.895 1.39-3.91 3.966-3.91 2.043 0 3.313 1.18 3.313 3.079 0 1.198-.254 2.307-.716 3.124-.32.567-.885 1.244-1.75 1.244-.375 0-.711-.156-.924-.429a1.09 1.09 0 0 1-.186-.936c.091-.392.216-.8.336-1.195.22-.721.426-1.402.426-1.946 0-.93-.562-1.554-1.4-1.554-1.064 0-1.898 1.098-1.898 2.5 0 .686.18 1.2.261 1.398-.134.577-.93 4.006-1.082 4.653-.087.377-.614 3.359.258 3.597.979.267 1.854-2.637 1.943-2.965.072-.267.325-1.276.48-1.897.472.463 1.233.775 1.974.775 1.396 0 2.652-.638 3.535-1.796.857-1.123 1.33-2.689 1.33-4.408 0-1.344-.569-2.67-1.56-3.636z"/></symbol><symbol viewBox="0 0 512 512" id="prev" xmlns="http://www.w3.org/2000/svg"><path d="M352 128.4L319.7 96 160 256l159.7 160 32.3-32.4L224.7 256z"/></symbol><symbol viewBox="0 0 20 18" id="twitter" xmlns="http://www.w3.org/2000/svg"><path d="M20 2.62a7.983 7.983 0 0 1-2.357.667A4.229 4.229 0 0 0 19.448.942a8.058 8.058 0 0 1-2.606 1.029A4.04 4.04 0 0 0 13.846.633c-2.265 0-4.103 1.898-4.103 4.238 0 .333.036.656.107.966-3.41-.176-6.434-1.864-8.458-4.429A4.327 4.327 0 0 0 .836 3.54c0 1.47.725 2.768 1.826 3.528a3.976 3.976 0 0 1-1.859-.53v.053c0 2.054 1.415 3.767 3.292 4.156a3.969 3.969 0 0 1-1.853.074c.522 1.683 2.037 2.909 3.833 2.943A8.067 8.067 0 0 1 0 15.518a11.339 11.339 0 0 0 6.29 1.905c7.547 0 11.674-6.459 11.674-12.06a12.5 12.5 0 0 0-.012-.549A8.478 8.478 0 0 0 20 2.62z"/></symbol></svg>